<svg width="16" height="16" viewBox="0 0 16 16" fill="none" xmlns="http://www.w3.org/2000/svg">
<g clip-path="url(#clip0_628_4999)">
<path d="M8.02081 12.6667C8.28354 12.6671 8.54378 12.6156 8.78656 12.5152C9.02933 12.4147 9.24986 12.2673 9.43547 12.0813L12.0481 9.46667L11.1055 8.52667L8.68347 10.9493L8.66614 0H7.33281L7.35014 10.9387L4.93681 8.52533L3.99414 9.46667L6.60681 12.0793C6.7922 12.2655 7.01255 12.4133 7.25521 12.5141C7.49787 12.6149 7.75805 12.6667 8.02081 12.6667V12.6667Z" fill="#31D93C"/>
<path d="M14.6667 10.667V14.0003C14.6667 14.1771 14.5964 14.3467 14.4714 14.4717C14.3464 14.5967 14.1768 14.667 14 14.667H2C1.82319 14.667 1.65362 14.5967 1.5286 14.4717C1.40357 14.3467 1.33333 14.1771 1.33333 14.0003V10.667H0V14.0003C0 14.5308 0.210714 15.0395 0.585786 15.4145C0.960859 15.7896 1.46957 16.0003 2 16.0003H14C14.5304 16.0003 15.0391 15.7896 15.4142 15.4145C15.7893 15.0395 16 14.5308 16 14.0003V10.667H14.6667Z" fill="#31D93C"/>
</g>
<defs>
<clipPath id="clip0_628_4999">
<rect width="16" height="16" fill="white"/>
</clipPath>
</defs>
</svg>
