<svg width="24" height="24" viewBox="0 0 24 24" fill="none" xmlns="http://www.w3.org/2000/svg">
<g clip-path="url(#clip0_202_6270)">
<circle cx="12" cy="12" r="12" fill="white"/>
<path d="M20 7.63822V16.9109C20 17.5136 19.512 18.0016 18.9093 18.0016H16.3633V11.8202L12 15.0936L7.63667 11.8202V18.0022H5.09067C4.94738 18.0022 4.8055 17.974 4.67313 17.9191C4.54076 17.8643 4.4205 17.7839 4.31921 17.6825C4.21793 17.5812 4.1376 17.4609 4.08283 17.3285C4.02806 17.1961 3.99991 17.0542 4 16.9109V7.63822C4 6.28956 5.53933 5.51956 6.618 6.32889L7.63667 7.09356L12 10.3656L16.3633 7.09222L17.382 6.32889C18.46 5.52022 20 6.28956 20 7.63822Z" fill="#262626"/>
</g>
<defs>
<clipPath id="clip0_202_6270">
<rect width="24" height="24" fill="white"/>
</clipPath>
</defs>
</svg>
