<svg width="48" height="48" viewBox="0 0 48 48" fill="none" xmlns="http://www.w3.org/2000/svg">
<g clip-path="url(#clip0_202_6241)">
<circle cx="24" cy="24" r="24" fill="white"/>
<path d="M40 15.2764V33.8218C40 35.0271 39.024 36.0031 37.8187 36.0031H32.7267V23.6404L24 30.1871L15.2733 23.6404V36.0044H10.1813C9.89476 36.0044 9.611 35.948 9.34627 35.8383C9.08153 35.7286 8.841 35.5678 8.63843 35.3651C8.43585 35.1624 8.27521 34.9218 8.16566 34.6569C8.05612 34.3921 7.99983 34.1083 8 33.8218V15.2764C8 12.5791 11.0787 11.0391 13.236 12.6578L15.2733 14.1871L24 20.7311L32.7267 14.1844L34.764 12.6578C36.92 11.0404 40 12.5791 40 15.2764Z" fill="#262626"/>
</g>
<defs>
<clipPath id="clip0_202_6241">
<rect width="48" height="48" fill="white"/>
</clipPath>
</defs>
</svg>
