<svg width="36" height="36" viewBox="0 0 36 36" fill="none" xmlns="http://www.w3.org/2000/svg">
<g clip-path="url(#clip0_758_2306)">
<circle cx="18" cy="18" r="18" fill="white"/>
<path d="M30 11.4573V25.3663C30 26.2703 29.268 27.0023 28.364 27.0023H24.545V17.7303L18 22.6403L11.455 17.7303V27.0033H7.636C7.42107 27.0033 7.20825 26.961 7.0097 26.8787C6.81115 26.7964 6.63075 26.6758 6.47882 26.5238C6.32689 26.3718 6.2064 26.1913 6.12425 25.9927C6.04209 25.7941 5.99987 25.5813 6 25.3663V11.4573C6 9.43433 8.309 8.27933 9.927 9.49333L11.455 10.6403L18 15.5483L24.545 10.6383L26.073 9.49333C27.69 8.28033 30 9.43433 30 11.4573Z" fill="#262626"/>
</g>
<defs>
<clipPath id="clip0_758_2306">
<rect width="36" height="36" fill="white"/>
</clipPath>
</defs>
</svg>
