<svg width="335" height="245" viewBox="0 0 335 245" fill="none" xmlns="http://www.w3.org/2000/svg">
<path d="M1.09955 228.742V105.597C1.09955 104.293 1.73944 102.678 3.14092 100.743C4.52899 98.826 6.58009 96.7097 9.20033 94.4269C14.4386 89.8631 21.8127 84.7521 30.3142 79.3677C40.3166 73.0326 51.7714 66.3839 63.0442 59.8408C70.9697 55.2405 78.8053 50.6925 85.9828 46.3425C92.9752 42.1047 100.088 37.6057 107.138 33.147C116.901 26.9715 126.543 20.8733 135.572 15.6537C143.325 11.1717 150.561 7.37729 156.946 4.78435C163.358 2.18037 168.787 0.841386 172.966 1.14082C177.186 1.44322 183.613 3.66804 191.323 7.19716C198.991 10.7069 207.796 15.4432 216.722 20.6524C234.576 31.0723 252.84 43.3407 263.336 51.3627C269.869 56.3563 279.193 62.5462 288.914 69.0005C294.904 72.9773 301.045 77.0546 306.778 81.0143C314.329 86.2296 321.183 91.2466 326.141 95.6065C328.622 97.7882 330.595 99.7767 331.94 101.519C333.316 103.302 333.897 104.656 333.897 105.597V228.751C333.897 236.236 327.829 242.267 320.335 242.267H14.6607C7.16761 242.267 1.09955 236.228 1.09955 228.742Z" fill="#2E2E2E" stroke="#5831D9" stroke-width="2.1991"/>
<rect x="37.2281" y="47.5273" width="146.105" height="39.5108" rx="10.3085" transform="rotate(15 37.2281 47.5273)" fill="#5831D9"/>
<rect x="37.2281" y="47.5273" width="146.105" height="39.5108" rx="10.3085" transform="rotate(15 37.2281 47.5273)" stroke="#5831D9" stroke-width="2.1991"/>
<path d="M59.7504 67.7951L67.0522 69.7516L66.6943 71.0876L63.7984 70.3116L61.275 79.7293L64.1708 80.5052L63.8151 81.8328L56.5132 79.8763L56.869 78.5487L59.6984 79.3069L62.2219 69.8892L59.3924 69.131L59.7504 67.7951ZM66.7192 82.611L69.1248 73.6331L70.5022 74.0022L70.2544 75.3587C70.4375 75.2062 70.6273 75.0732 70.8237 74.9598C71.0271 74.8424 71.2328 74.7493 71.441 74.6806C71.7539 74.5747 72.0779 74.5163 72.4129 74.5052C72.7549 74.4901 73.1008 74.5265 73.4508 74.6144C73.921 74.7404 74.3292 74.9209 74.6753 75.1559C75.0269 75.3924 75.3005 75.688 75.4959 76.0428C75.6914 76.3975 75.8025 76.8127 75.8292 77.2882C75.863 77.7597 75.7998 78.2942 75.6397 78.8916L74.1123 84.592L72.5773 84.1807L74.0958 78.5135C74.2025 78.1152 74.2487 77.7659 74.2343 77.4656C74.2199 77.1653 74.1499 76.9064 74.0244 76.689C73.8933 76.4701 73.7109 76.2878 73.4772 76.1422C73.249 75.998 72.9718 75.8822 72.6454 75.7948C72.3633 75.7192 72.0894 75.6903 71.8238 75.708C71.5596 75.7203 71.3067 75.7681 71.065 75.8516C70.8664 75.9288 70.6737 76.0283 70.4869 76.1502C70.3056 76.2736 70.1365 76.418 69.9795 76.5834L68.2542 83.0223L66.7192 82.611ZM83.5476 75.1676L82.9651 77.3416L86.3837 78.2576L86.0657 79.4441L82.6472 78.5281L81.3399 83.4071C81.2465 83.7556 81.2137 84.0551 81.2414 84.3056C81.2691 84.5561 81.3427 84.7685 81.462 84.9427C81.5798 85.1225 81.7309 85.2668 81.9152 85.3755C82.105 85.4856 82.3134 85.5711 82.5402 85.6318C82.7061 85.6763 82.8798 85.714 83.0613 85.7448C83.2442 85.7701 83.4251 85.7919 83.604 85.8102C83.7774 85.827 83.9397 85.8408 84.0909 85.8517C84.2492 85.8586 84.3783 85.8635 84.4783 85.8666L84.4027 87.0114C84.2548 87.0547 84.0813 87.0824 83.8825 87.0943C83.6851 87.1007 83.4734 87.0944 83.2473 87.0753C83.0197 87.0617 82.7812 87.0334 82.5319 86.9903C82.2881 86.9487 82.0473 86.896 81.8094 86.8323C81.4111 86.7256 81.0526 86.5702 80.7337 86.3662C80.4219 86.1581 80.1721 85.8955 79.9843 85.5784C79.7951 85.2669 79.6777 84.8975 79.6321 84.4702C79.5935 84.0389 79.6483 83.5467 79.7965 82.9935L81.1038 78.1146L78.7473 77.4832L79.0653 76.2966L81.4218 76.928L82.0043 74.7541L83.5476 75.1676ZM91.0529 89.3091C90.4223 89.1401 89.8703 88.8766 89.3971 88.5186C88.9294 88.162 88.5593 87.7397 88.2869 87.2517C88.0145 86.7637 87.8444 86.226 87.7765 85.6387C87.7086 85.0513 87.7583 84.4451 87.9258 83.82L88.0192 83.4715C88.2134 82.7469 88.503 82.1308 88.888 81.6233C89.2744 81.1102 89.7147 80.7064 90.2086 80.4119C90.6955 80.1214 91.2105 79.9363 91.7536 79.8565C92.3023 79.7783 92.8338 79.808 93.3483 79.9459C93.9955 80.1193 94.5293 80.3839 94.9498 80.7396C95.3773 81.0913 95.6989 81.5065 95.9145 81.9853C96.1286 82.4695 96.2412 83.0007 96.2523 83.5787C96.269 84.1583 96.1935 84.7606 96.0261 85.3857L95.8415 86.0744L89.4275 84.3558L89.412 84.4139C89.3336 84.8612 89.3163 85.2687 89.3601 85.6361C89.4095 86.0051 89.519 86.3487 89.6887 86.6669C89.8595 87.0031 90.0956 87.2947 90.3971 87.5414C90.6985 87.7882 91.0567 87.9672 91.4716 88.0784C92.0192 88.2251 92.5356 88.2449 93.0209 88.1378C93.5061 88.0306 93.9387 87.8323 94.3186 87.5428L95.0606 88.5242C94.6403 88.8978 94.0841 89.1815 93.3918 89.3755C92.7065 89.5654 91.9269 89.5432 91.0529 89.3091ZM93.0103 81.2071C92.7006 81.1241 92.3918 81.1036 92.0841 81.1457C91.7779 81.1822 91.4852 81.2787 91.2062 81.4351C90.9256 81.5971 90.6649 81.8178 90.424 82.0971C90.1902 82.3724 89.9873 82.7093 89.8153 83.1079L94.6444 84.4019L94.6644 84.3272C94.7385 84.0506 94.7653 83.7406 94.7447 83.3971C94.7255 83.0481 94.6531 82.7322 94.5272 82.4495C94.4014 82.1668 94.2139 81.915 93.9648 81.6941C93.7213 81.4747 93.4031 81.3123 93.0103 81.2071ZM105.67 83.2475C105.952 83.3231 106.24 83.421 106.534 83.5413C106.833 83.663 107.052 83.7778 107.189 83.8857L106.579 85.3319C106.298 85.1855 106.026 85.0622 105.762 84.9619C105.505 84.8575 105.231 84.7661 104.937 84.6875C104.561 84.5867 104.208 84.5426 103.879 84.5551C103.551 84.5621 103.25 84.6237 102.976 84.74C102.73 84.84 102.499 84.9827 102.283 85.168C102.074 85.3492 101.883 85.5648 101.71 85.8147L100.167 91.5732L98.6232 91.1597L101.029 82.1817L102.489 82.573L102.233 83.794L102.181 84.0202C102.678 83.6257 103.219 83.3556 103.804 83.2099C104.395 83.06 105.017 83.0726 105.67 83.2475ZM110.605 94.3701L109.318 84.4028L110.895 84.8253L111.653 92.2853L111.645 92.879L111.943 92.3631L116.271 86.266L117.84 86.6862L111.775 94.6836L110.605 94.3701ZM120.395 87.371L124.984 88.6004L122.934 96.2508L125.863 97.0356L125.507 98.3632L117.99 96.3489L118.345 95.0213L121.399 95.8395L123.091 89.525L120.037 88.7069L120.395 87.371ZM123.881 85.7793C123.917 85.6465 123.969 85.5272 124.039 85.4214C124.115 85.3171 124.208 85.2354 124.318 85.1761C124.41 85.1235 124.516 85.0926 124.637 85.0835C124.765 85.0704 124.901 85.0831 125.044 85.1216C125.188 85.1602 125.31 85.2164 125.408 85.2903C125.509 85.3587 125.585 85.4384 125.638 85.5296C125.705 85.6308 125.746 85.7454 125.759 85.8734C125.772 86.0014 125.76 86.1346 125.723 86.2729C125.656 86.5218 125.523 86.7085 125.324 86.8329C125.125 86.9574 124.873 86.9788 124.569 86.8973C124.259 86.8143 124.049 86.6691 123.938 86.4616C123.833 86.2556 123.814 86.0282 123.881 85.7793ZM131.877 100.248C131.246 100.079 130.694 99.8153 130.221 99.4573C129.753 99.1007 129.383 98.6784 129.111 98.1904C128.838 97.7024 128.668 97.1647 128.6 96.5774C128.532 95.99 128.582 95.3838 128.75 94.7587L128.843 94.4102C129.037 93.6856 129.327 93.0695 129.712 92.562C130.098 92.0489 130.538 91.6451 131.032 91.3506C131.519 91.0601 132.034 90.875 132.577 90.7953C133.126 90.717 133.658 90.7467 134.172 90.8846C134.819 91.058 135.353 91.3226 135.774 91.6783C136.201 92.03 136.523 92.4453 136.738 92.924C136.952 93.4082 137.065 93.9394 137.076 94.5175C137.093 95.097 137.017 95.6993 136.85 96.3244L136.665 97.0131L130.251 95.2945L130.236 95.3526C130.157 95.7999 130.14 96.2074 130.184 96.5748C130.233 96.9438 130.343 97.2874 130.513 97.6056C130.683 97.9418 130.919 98.2334 131.221 98.4802C131.522 98.7269 131.881 98.9059 132.295 99.0171C132.843 99.1638 133.359 99.1836 133.845 99.0765C134.33 98.9693 134.762 98.771 135.142 98.4815L135.884 99.4629C135.464 99.8365 134.908 100.12 134.216 100.314C133.53 100.504 132.751 100.482 131.877 100.248ZM133.834 92.1458C133.524 92.0628 133.216 92.0423 132.908 92.0844C132.602 92.1209 132.309 92.2174 132.03 92.3738C131.749 92.5358 131.489 92.7565 131.248 93.0358C131.014 93.3111 130.811 93.648 130.639 94.0466L135.468 95.3406L135.488 95.2659C135.562 94.9893 135.589 94.6793 135.568 94.3358C135.549 93.9868 135.477 93.671 135.351 93.3882C135.225 93.1055 135.038 92.8537 134.789 92.6328C134.545 92.4134 134.227 92.251 133.834 92.1458ZM139.024 101.985L139.521 92.4957L140.882 92.8603L140.393 98.8657L140.231 100.201L140.8 98.9747L143.769 93.634L144.757 93.8986L144.65 100.006L144.513 101.481L145.115 100.131L147.644 94.6723L149.005 95.0369L144.691 103.504L143.48 103.179L143.551 97.3019L143.693 95.8457L143.095 97.1796L140.235 102.31L139.024 101.985Z" fill="white"/>
<g filter="url(#filter0_d_212_4196)">
<rect x="117.301" y="119.286" width="190.589" height="54.2444" rx="14.6607" transform="rotate(-15.7252 117.301 119.286)" fill="#31D93C" shape-rendering="crispEdges"/>
<path d="M162.86 127.18L164.944 126.593L168.088 137.761C168.283 138.508 168.332 139.232 168.236 139.933C168.147 140.632 167.934 141.271 167.597 141.85C167.263 142.436 166.815 142.947 166.256 143.382C165.701 143.808 165.053 144.125 164.311 144.334C163.561 144.545 162.845 144.624 162.164 144.57C161.49 144.514 160.868 144.335 160.3 144.035C159.726 143.745 159.22 143.34 158.78 142.821C158.338 142.295 157.98 141.67 157.705 140.947L159.778 140.363C159.926 140.805 160.131 141.196 160.393 141.534C160.662 141.871 160.972 142.141 161.323 142.343C161.675 142.553 162.061 142.683 162.479 142.732C162.905 142.778 163.353 142.736 163.823 142.603C164.308 142.467 164.717 142.256 165.05 141.972C165.38 141.681 165.638 141.343 165.823 140.957C166.001 140.574 166.102 140.161 166.128 139.717C166.159 139.264 166.118 138.808 166.005 138.348L162.86 127.18ZM171.127 135.621C170.885 134.761 170.785 133.928 170.828 133.123C170.869 132.31 171.048 131.565 171.365 130.889C171.675 130.215 172.121 129.629 172.703 129.132C173.283 128.628 173.992 128.258 174.829 128.022C175.675 127.784 176.476 127.729 177.234 127.856C177.997 127.975 178.691 128.239 179.314 128.651C179.93 129.064 180.468 129.607 180.927 130.279C181.384 130.944 181.733 131.706 181.975 132.566L182.044 132.809C182.286 133.669 182.385 134.501 182.342 135.307C182.299 136.112 182.123 136.852 181.813 137.526C181.496 138.202 181.046 138.789 180.464 139.286C179.882 139.783 179.172 140.15 178.334 140.385C177.489 140.623 176.685 140.683 175.922 140.565C175.166 140.445 174.48 140.178 173.864 139.764C173.24 139.353 172.7 138.815 172.243 138.15C171.787 137.485 171.437 136.723 171.195 135.863L171.127 135.621ZM173.235 135.289C173.4 135.877 173.628 136.419 173.919 136.917C174.208 137.407 174.552 137.813 174.953 138.137C175.346 138.462 175.789 138.683 176.281 138.798C176.774 138.913 177.303 138.891 177.869 138.732C178.427 138.574 178.883 138.319 179.236 137.966C179.596 137.611 179.862 137.191 180.035 136.706C180.201 136.223 180.279 135.697 180.269 135.129C180.258 134.553 180.169 133.971 180.004 133.383L179.936 133.14C179.772 132.56 179.542 132.025 179.246 131.538C178.956 131.04 178.614 130.629 178.221 130.303C177.82 129.98 177.374 129.761 176.881 129.645C176.394 129.521 175.867 129.538 175.301 129.697C174.735 129.857 174.277 130.117 173.926 130.477C173.574 130.83 173.315 131.248 173.149 131.731C172.976 132.216 172.896 132.747 172.907 133.323C172.916 133.891 173.003 134.466 173.166 135.046L173.235 135.289ZM195.439 129.037C195.586 129.559 195.687 130.074 195.743 130.582C195.804 131.08 195.82 131.559 195.791 132.02C195.748 132.627 195.626 133.196 195.427 133.729C195.233 134.251 194.952 134.719 194.585 135.132C194.317 135.421 194.004 135.676 193.646 135.896C193.295 136.114 192.895 136.286 192.446 136.412C191.932 136.557 191.444 136.627 190.982 136.622C190.528 136.615 190.099 136.542 189.695 136.402C189.5 136.329 189.309 136.244 189.123 136.146C188.937 136.048 188.754 135.933 188.574 135.801L188.856 137.185L186.982 137.713L182.214 120.778L184.254 120.204L186.023 126.488C186.132 126.228 186.266 125.984 186.424 125.757C186.58 125.522 186.758 125.31 186.958 125.118C187.209 124.881 187.499 124.673 187.829 124.492C188.159 124.312 188.53 124.164 188.941 124.048C189.456 123.903 189.95 123.84 190.423 123.857C190.896 123.875 191.344 123.959 191.767 124.109C192.149 124.256 192.513 124.463 192.858 124.73C193.201 124.991 193.526 125.3 193.833 125.658C194.162 126.065 194.457 126.537 194.72 127.074C194.98 127.604 195.198 128.181 195.374 128.805L195.439 129.037ZM193.334 129.38C193.228 129.005 193.1 128.648 192.95 128.31C192.804 127.962 192.639 127.644 192.454 127.355C192.212 127.002 191.939 126.695 191.635 126.431C191.331 126.168 190.999 125.988 190.638 125.891C190.388 125.819 190.12 125.783 189.835 125.784C189.549 125.785 189.245 125.831 188.922 125.922C188.569 126.021 188.259 126.16 187.992 126.339C187.723 126.509 187.497 126.708 187.315 126.934C187.127 127.169 186.973 127.426 186.854 127.706C186.739 127.976 186.657 128.261 186.607 128.561L188.075 133.776C188.282 134.003 188.505 134.206 188.746 134.384C188.992 134.553 189.256 134.689 189.539 134.791C189.822 134.894 190.124 134.952 190.444 134.965C190.763 134.97 191.099 134.923 191.452 134.824C191.79 134.729 192.087 134.601 192.344 134.442C192.598 134.275 192.813 134.08 192.988 133.856C193.224 133.567 193.397 133.237 193.506 132.865C193.616 132.493 193.674 132.096 193.682 131.673C193.695 131.352 193.676 131.017 193.625 130.666C193.574 130.316 193.499 129.964 193.399 129.611L193.334 129.38ZM211.809 124.166C211.567 123.306 211.467 122.473 211.51 121.668C211.551 120.855 211.73 120.111 212.047 119.435C212.357 118.76 212.803 118.175 213.385 117.678C213.965 117.173 214.674 116.803 215.512 116.567C216.357 116.329 217.158 116.274 217.916 116.402C218.679 116.52 219.373 116.785 219.996 117.196C220.612 117.61 221.15 118.153 221.609 118.825C222.066 119.489 222.415 120.252 222.657 121.112L222.726 121.354C222.968 122.214 223.067 123.047 223.024 123.852C222.981 124.657 222.805 125.397 222.495 126.071C222.178 126.748 221.728 127.335 221.146 127.832C220.564 128.329 219.854 128.695 219.017 128.931C218.171 129.169 217.367 129.229 216.604 129.11C215.848 128.99 215.162 128.723 214.546 128.31C213.923 127.898 213.382 127.36 212.926 126.696C212.469 126.031 212.119 125.269 211.877 124.409L211.809 124.166ZM213.917 123.834C214.082 124.422 214.31 124.965 214.601 125.462C214.89 125.952 215.234 126.359 215.635 126.682C216.028 127.008 216.471 127.228 216.963 127.343C217.456 127.459 217.985 127.437 218.551 127.277C219.11 127.12 219.565 126.865 219.918 126.512C220.278 126.156 220.544 125.736 220.717 125.251C220.883 124.768 220.961 124.243 220.951 123.674C220.94 123.098 220.852 122.516 220.686 121.928L220.618 121.686C220.454 121.105 220.224 120.571 219.928 120.083C219.638 119.586 219.296 119.174 218.903 118.849C218.502 118.525 218.056 118.306 217.563 118.191C217.076 118.066 216.549 118.084 215.983 118.243C215.417 118.402 214.959 118.662 214.609 119.023C214.256 119.376 213.997 119.794 213.831 120.277C213.658 120.762 213.578 121.292 213.589 121.868C213.598 122.437 213.685 123.011 213.848 123.592L213.917 123.834ZM230.696 125.404L227.781 115.052L224.496 115.977L224.052 114.401L227.337 113.475L227.101 112.638C226.886 111.873 226.808 111.173 226.867 110.538C226.932 109.893 227.115 109.318 227.417 108.813C227.711 108.309 228.117 107.878 228.635 107.518C229.152 107.158 229.764 106.879 230.469 106.68C230.763 106.597 231.059 106.534 231.356 106.49C231.651 106.438 231.945 106.399 232.239 106.372C232.433 106.357 232.628 106.346 232.824 106.338C233.018 106.323 233.218 106.314 233.424 106.312L233.656 108.067C233.326 108.049 232.948 108.06 232.523 108.101C232.103 108.131 231.666 108.211 231.21 108.339C230.747 108.47 230.352 108.644 230.025 108.863C229.703 109.073 229.457 109.325 229.286 109.619C229.102 109.925 228.997 110.283 228.97 110.695C228.951 111.105 229.011 111.56 229.152 112.06L229.388 112.898L233.985 111.604L234.429 113.18L229.832 114.475L232.747 124.827L230.696 125.404ZM244.257 121.586L241.342 111.234L238.056 112.159L237.613 110.582L240.898 109.657L240.662 108.819C240.447 108.055 240.369 107.355 240.428 106.72C240.492 106.075 240.675 105.5 240.977 104.994C241.272 104.491 241.678 104.059 242.195 103.7C242.713 103.34 243.324 103.06 244.03 102.862C244.324 102.779 244.619 102.716 244.916 102.672C245.211 102.62 245.506 102.581 245.799 102.554C245.993 102.539 246.189 102.528 246.385 102.52C246.579 102.505 246.779 102.496 246.984 102.494L247.217 104.249C246.886 104.231 246.509 104.242 246.084 104.282C245.664 104.313 245.226 104.393 244.771 104.521C244.308 104.652 243.913 104.826 243.586 105.045C243.264 105.255 243.017 105.507 242.846 105.801C242.663 106.106 242.558 106.465 242.531 106.877C242.511 107.287 242.572 107.742 242.713 108.242L242.949 109.08L247.546 107.785L247.99 109.362L243.393 110.656L246.307 121.009L244.257 121.586ZM260.107 117.362C259.269 117.598 258.457 117.671 257.67 117.583C256.891 117.493 256.18 117.262 255.535 116.888C254.89 116.514 254.329 116.014 253.851 115.387C253.373 114.76 253.017 114.031 252.783 113.2L252.653 112.737C252.382 111.775 252.294 110.871 252.389 110.027C252.483 109.176 252.712 108.413 253.078 107.739C253.438 107.074 253.902 106.511 254.471 106.05C255.046 105.587 255.676 105.259 256.359 105.066C257.219 104.824 258.011 104.764 258.735 104.885C259.465 104.997 260.116 105.254 260.69 105.655C261.265 106.065 261.756 106.597 262.162 107.252C262.576 107.905 262.9 108.646 263.134 109.477L263.392 110.392L254.869 112.791L254.891 112.869C255.106 113.435 255.364 113.914 255.664 114.305C255.972 114.694 256.332 115.013 256.743 115.262C257.168 115.532 257.637 115.705 258.151 115.782C258.664 115.86 259.197 115.821 259.748 115.666C260.476 115.461 261.081 115.132 261.564 114.678C262.048 114.225 262.408 113.703 262.646 113.112L264.165 113.732C263.938 114.446 263.494 115.15 262.833 115.844C262.177 116.529 261.268 117.035 260.107 117.362ZM256.831 106.742C256.419 106.858 256.052 107.045 255.727 107.302C255.401 107.553 255.132 107.863 254.918 108.232C254.707 108.609 254.559 109.04 254.473 109.524C254.392 109.999 254.389 110.523 254.464 111.097L260.88 109.29L260.852 109.191C260.749 108.824 260.568 108.45 260.311 108.071C260.051 107.684 259.753 107.371 259.416 107.133C259.079 106.894 258.693 106.733 258.257 106.65C257.828 106.564 257.353 106.595 256.831 106.742ZM272.731 100.456C273.106 100.351 273.503 100.267 273.922 100.204C274.348 100.14 274.676 100.123 274.907 100.153L275.193 102.226C274.771 102.25 274.375 102.294 274.005 102.359C273.639 102.414 273.262 102.496 272.872 102.606C272.373 102.747 271.938 102.936 271.569 103.175C271.198 103.407 270.895 103.682 270.66 104.002C270.446 104.285 270.278 104.606 270.157 104.965C270.042 105.315 269.969 105.692 269.94 106.097L272.095 113.748L270.044 114.326L266.685 102.397L268.626 101.85L269.164 103.424L269.259 103.719C269.56 102.928 269.996 102.25 270.566 101.685C271.142 101.11 271.864 100.701 272.731 100.456Z" fill="#161616"/>
</g>
<path d="M167.317 174.884C117.238 174.884 65.6419 105.557 1.46533 105.557V228.706C1.46533 236.803 8.02913 243.367 16.126 243.367H318.869C326.966 243.367 333.529 236.803 333.529 228.706V105.557C268.886 105.557 217.761 174.884 167.317 174.884Z" fill="#5831D9" stroke="#5831D9" stroke-width="2.1991"/>
<defs>
<filter id="filter0_d_212_4196" x="117.301" y="66.1658" width="215.75" height="112.665" filterUnits="userSpaceOnUse" color-interpolation-filters="sRGB">
<feFlood flood-opacity="0" result="BackgroundImageFix"/>
<feColorMatrix in="SourceAlpha" type="matrix" values="0 0 0 0 0 0 0 0 0 0 0 0 0 0 0 0 0 0 127 0" result="hardAlpha"/>
<feOffset dx="13.1946" dy="2.93213"/>
<feGaussianBlur stdDeviation="2.1991"/>
<feComposite in2="hardAlpha" operator="out"/>
<feColorMatrix type="matrix" values="0 0 0 0 0.0460362 0 0 0 0 0.215234 0 0 0 0 0.0571147 0 0 0 0.48 0"/>
<feBlend mode="normal" in2="BackgroundImageFix" result="effect1_dropShadow_212_4196"/>
<feBlend mode="normal" in="SourceGraphic" in2="effect1_dropShadow_212_4196" result="shape"/>
</filter>
</defs>
</svg>
